<?xml version="1.0" encoding="utf-8"?>
<!DOCTYPE svg PUBLIC "-//W3C//DTD SVG 20010904//EN" "http://www.w3.org/TR/2001/REC-SVG-20010904/DTD/svg10.dtd">
<svg version="1.0" xmlns="http://www.w3.org/2000/svg" width="72px" height="72px" viewBox="0 0 72 72" preserveAspectRatio="xMidYMid meet">
 <g fill="#000000">
  <path d="M2.5 69.5 c-2.5 -2.4 -2.5 -2.4 -2.5 -33.5 0 -31.1 0 -31.1 2.5 -33.5 2.4 -2.5 2.4 -2.5 33.5 -2.5 31.1 0 31.1 0 33.5 2.5 2.5 2.4 2.5 2.4 2.5 33.5 0 31.1 0 31.1 -2.5 33.5 -2.4 2.5 -2.4 2.5 -33.5 2.5 -31.1 0 -31.1 0 -33.5 -2.5z"/>
 </g>
 <g fill="#ffffff">
  <path d="M18.5 53 c-2.5 -2.6 -2.5 -2.6 14.8 -19.8 17.3 -17.3 17.3 -17.3 19.7 -14.5 2.5 2.8 2.5 2.8 -14.8 19.8 -17.2 17.1 -17.2 17.1 -19.7 14.5z"/>
 </g>
</svg>